<svg id="visual" viewBox="0 0 1920 1080" width="1920" height="1080" xmlns="http://www.w3.org/2000/svg" xmlns:xlink="http://www.w3.org/1999/xlink" version="1.1"><path d="M0 131L53.3 123.7C106.7 116.3 213.3 101.7 320 94.3C426.7 87 533.3 87 640 92.5C746.7 98 853.3 109 960 110.8C1066.7 112.7 1173.3 105.3 1280 98.2C1386.7 91 1493.3 84 1600 96.7C1706.7 109.3 1813.3 141.7 1866.7 157.8L1920 174L1920 0L1866.7 0C1813.3 0 1706.7 0 1600 0C1493.3 0 1386.7 0 1280 0C1173.3 0 1066.7 0 960 0C853.3 0 746.7 0 640 0C533.3 0 426.7 0 320 0C213.3 0 106.7 0 53.3 0L0 0Z" fill="#6198ff"></path><path d="M0 314L53.3 301.5C106.7 289 213.3 264 320 251.5C426.7 239 533.3 239 640 251.5C746.7 264 853.3 289 960 296.2C1066.7 303.3 1173.3 292.7 1280 283.7C1386.7 274.7 1493.3 267.3 1600 281.7C1706.7 296 1813.3 332 1866.7 350L1920 368L1920 172L1866.7 155.8C1813.3 139.7 1706.7 107.3 1600 94.7C1493.3 82 1386.7 89 1280 96.2C1173.3 103.3 1066.7 110.7 960 108.8C853.3 107 746.7 96 640 90.5C533.3 85 426.7 85 320 92.3C213.3 99.7 106.7 114.3 53.3 121.7L0 129Z" fill="#4385ff"></path><path d="M0 584L53.3 584C106.7 584 213.3 584 320 571.5C426.7 559 533.3 534 640 550.2C746.7 566.3 853.3 623.7 960 632.7C1066.7 641.7 1173.3 602.3 1280 582.7C1386.7 563 1493.3 563 1600 561.2C1706.7 559.3 1813.3 555.7 1866.7 553.8L1920 552L1920 366L1866.7 348C1813.3 330 1706.7 294 1600 279.7C1493.3 265.3 1386.7 272.7 1280 281.7C1173.3 290.7 1066.7 301.3 960 294.2C853.3 287 746.7 262 640 249.5C533.3 237 426.7 237 320 249.5C213.3 262 106.7 287 53.3 299.5L0 312Z" fill="#2071ff"></path><path d="M0 703L53.3 701.2C106.7 699.3 213.3 695.7 320 686.7C426.7 677.7 533.3 663.3 640 676C746.7 688.7 853.3 728.3 960 728.3C1066.7 728.3 1173.3 688.7 1280 668.8C1386.7 649 1493.3 649 1600 652.7C1706.7 656.3 1813.3 663.7 1866.7 667.3L1920 671L1920 550L1866.7 551.8C1813.3 553.7 1706.7 557.3 1600 559.2C1493.3 561 1386.7 561 1280 580.7C1173.3 600.3 1066.7 639.7 960 630.7C853.3 621.7 746.7 564.3 640 548.2C533.3 532 426.7 557 320 569.5C213.3 582 106.7 582 53.3 582L0 582Z" fill="#0061f1"></path><path d="M0 811L53.3 805.7C106.7 800.3 213.3 789.7 320 784.3C426.7 779 533.3 779 640 797C746.7 815 853.3 851 960 842C1066.7 833 1173.3 779 1280 764.5C1386.7 750 1493.3 775 1600 784C1706.7 793 1813.3 786 1866.7 782.5L1920 779L1920 669L1866.7 665.3C1813.3 661.7 1706.7 654.3 1600 650.7C1493.3 647 1386.7 647 1280 666.8C1173.3 686.7 1066.7 726.3 960 726.3C853.3 726.3 746.7 686.7 640 674C533.3 661.3 426.7 675.7 320 684.7C213.3 693.7 106.7 697.3 53.3 699.2L0 701Z" fill="#0056d6"></path><path d="M0 1081L53.3 1081C106.7 1081 213.3 1081 320 1081C426.7 1081 533.3 1081 640 1081C746.7 1081 853.3 1081 960 1081C1066.7 1081 1173.3 1081 1280 1081C1386.7 1081 1493.3 1081 1600 1081C1706.7 1081 1813.3 1081 1866.7 1081L1920 1081L1920 777L1866.7 780.5C1813.3 784 1706.7 791 1600 782C1493.3 773 1386.7 748 1280 762.5C1173.3 777 1066.7 831 960 840C853.3 849 746.7 813 640 795C533.3 777 426.7 777 320 782.3C213.3 787.7 106.7 798.3 53.3 803.7L0 809Z" fill="#004cbb"></path></svg>